<svg width="459" height="120" viewBox="0 0 459 120" fill="none" xmlns="http://www.w3.org/2000/svg">
<path d="M185.467 3.4666C182.001 6.39993 181.334 7.8666 181.334 12.7999C181.334 17.5999 182.001 19.4666 184.801 21.9999C192.001 28.6666 205.334 25.0666 207.334 15.8666C210.001 3.59993 195.201 -4.80007 185.467 3.4666Z" fill="#51B46B"/>
<path d="M319.999 23.3333V34.6667H313.333H306.666V44.6667V54.6667H313.199H319.733L320.266 78.9333C320.666 100.533 320.933 103.867 323.333 108C327.999 115.733 333.333 117.867 349.733 118.533L363.999 118.933V108.8V98.6667H355.599C350.799 98.6667 346.533 98 345.599 97.0667C344.533 96 343.999 89.2 343.999 75.0667V54.6667H353.333H362.666V44.6667V34.6667H353.333H343.999V23.3333V12H331.999H319.999V23.3333Z" fill="#51B46B"/>
<path d="M30.9333 34.6667C16.8 36.8 4.8 46.1333 3.06667 56.4L2.26667 61.3333H13.0667C23.7333 61.3333 24 61.2 25.8667 57.4667C32 45.7333 56 50.1333 56 63.0667C56 66.2667 55.7333 66.2667 40 67.0667C28 67.7333 22.4 68.5333 17.7333 70.6667C6 75.8667 0 84 0 94.6667C0 110.133 11.2 118.933 30.6667 119.067C41.6 119.067 48.5333 116.533 54.5333 110.133C58.4 106 60 105.733 60 109.067C60 110.4 61.6 112.933 63.4667 114.8C66.2667 117.467 68.5333 118 76.8 118.4L86.6667 118.933V108.933C86.6667 98.9333 86.6667 98.8 83.0667 98.4L79.3333 98L78.6667 76C78 52.6667 77.0667 49.2 70.4 43.2C65.3333 38.5333 59.3333 36.1333 49.7333 34.6667C44.8 34 40.1333 33.4667 39.3333 33.4667C38.6667 33.6 34.8 34.1333 30.9333 34.6667ZM56 85.7333C56 90.6667 51.4667 97.6 46.5333 100.267C41.0667 103.2 30.9333 103.333 26.9333 100.533C23.2 98 22.8 89.4667 26.4 86.4C29.8667 83.2 31.7333 82.9333 44.4 82.8C55.6 82.6667 56 82.8 56 85.7333Z" fill="#51B46B"/>
<path d="M250 34.6667C243.066 35.6 233.333 39.8667 228.8 43.8667C225.6 46.6667 221.333 55.0667 221.333 58.6667C221.333 61.0667 222.133 61.3333 232 61.3333C242.133 61.3333 242.8 61.2 244.266 58C247.2 51.4667 260 48.5333 268 52.6667C272.533 54.9333 274.666 58.4 274.666 63.0667C274.666 66.2667 274.4 66.2667 259.733 67.0667C251.466 67.4667 242.533 68.5333 239.866 69.3333C215.866 76.2667 211.2 104.933 232.266 115.733C237.466 118.4 240.666 119.067 248.933 119.067C261.2 119.067 266.933 116.933 273.733 110C278.533 105.067 278.666 105.067 278.666 108.267C278.666 110 280.133 112.933 282.133 114.8C284.933 117.467 287.2 118 295.466 118.4L305.333 118.933V108.933C305.333 98.9333 305.333 98.8 301.733 98.4L298 98L297.333 76C296.666 52.6667 295.733 49.2 289.066 43.2C284 38.5333 278 36.1333 268.4 34.6667C263.466 34 258.8 33.4667 258 33.4667C257.333 33.6 253.6 34.1333 250 34.6667ZM274.266 87.4667C273.2 94.1333 270 98.5333 264.666 100.8C256.8 104 246.8 102.8 243.733 98.1333C241.866 95.4667 242.666 88.4 245.066 86.4C248.533 83.2 250.4 82.9333 263.2 82.8L275.066 82.6667L274.266 87.4667Z" fill="#51B46B"/>
<path d="M404.268 34.8C381.601 38.6667 368.134 56 369.601 79.7333C370.401 92.4 374.534 101.333 383.334 109.067C391.601 116.267 400.401 119.067 414.801 119.067C424.401 119.067 427.601 118.4 434.534 115.333C448.801 108.933 457.201 96.4 458.401 79.8667C460.534 49.8667 435.868 29.3333 404.268 34.8ZM423.601 54.8C425.068 55.3333 428.134 58.1333 430.268 60.8C433.734 65.3333 434.001 66.8 434.001 76.8C434.001 88.6667 432.534 92.1333 424.934 97.8667C419.868 101.6 408.134 101.6 403.068 97.8667C396.401 92.8 394.134 88.5333 393.601 79.4667C392.934 69.2 394.801 63.0667 399.868 58.1333C405.868 52.4 414.134 51.2 423.601 54.8Z" fill="#51B46B"/>
<path d="M85.6002 36.4001C85.8669 37.3334 92.6669 56.2667 100.667 78.4001L115.334 118.667L129.867 118.4L144.4 118L158.8 78.6667C166.8 57.0667 173.6 38.2667 174.134 36.9334C174.8 34.8001 173.867 34.5334 162.534 34.9334L150.267 35.3334L140.8 63.6001C135.6 79.0667 130.934 92.1334 130.534 92.6667C130.134 93.0667 125.2 80.2667 119.734 64.4001L109.734 35.3334L97.4669 34.9334C87.7335 34.6667 85.2002 34.9334 85.6002 36.4001Z" fill="#51B46B"/>
<path d="M182.666 76.6667V118.667H193.999H205.333V76.6667V34.6667H193.999H182.666V76.6667Z" fill="#51B46B"/>
</svg>
