<svg width="1331" height="236" viewBox="0 0 1331 236" fill="none" xmlns="http://www.w3.org/2000/svg">
<path d="M107.393 2.58452C89.2593 12.3179 92.8593 39.1179 112.859 43.5179C125.526 46.3179 137.793 37.2512 138.993 24.0512C140.726 6.58452 122.726 -5.54881 107.393 2.58452Z" fill="#51B46B"/>
<path d="M878.059 108.318V190.318H889.392H900.725V108.318V26.3177H889.392H878.059V108.318Z" fill="#51B46B"/>
<path d="M43.9255 28.5845C42.3255 28.8511 38.5921 31.1178 35.7921 33.6511C20.1921 46.8511 28.9921 71.6511 49.1255 71.6511C60.5921 71.6511 68.1921 66.0511 70.9921 55.6511C75.2588 39.5178 60.9921 25.2511 43.9255 28.5845Z" fill="#51B46B"/>
<path d="M175.393 30.5845C167.126 34.8511 163.393 40.8511 163.393 49.9178C163.393 63.2511 172.059 71.6511 185.793 71.6511C194.326 71.6511 200.459 67.6511 204.593 59.2511C208.859 50.5845 207.793 42.8511 201.126 35.5178C193.793 27.3845 184.993 25.7845 175.393 30.5845Z" fill="#51B46B"/>
<path d="M357.792 31.1178C353.525 33.3844 350.059 39.3844 350.059 44.3178C350.059 56.8511 366.592 63.3844 375.525 54.4511C378.725 51.2511 379.392 49.3844 379.392 44.3178C379.392 38.9844 378.725 37.3844 374.859 33.5178C369.792 28.4511 364.059 27.6511 357.792 31.1178Z" fill="#51B46B"/>
<path d="M563.393 53.6511V72.9844H548.06H532.727V82.3178V91.5178L547.793 91.9178L562.727 92.3178L563.393 133.651C564.193 180.851 564.327 181.784 575.393 187.251C580.86 190.051 582.993 190.318 604.993 190.318H628.727V180.318V170.318H609.66C595.26 170.318 589.927 169.784 587.927 168.451C585.527 166.584 585.393 164.584 585.393 129.384V92.3178L604.46 91.9178L623.393 91.5178V82.3178V72.9844H604.727C586.327 72.9844 586.06 72.9844 585.927 69.9178C585.927 68.3178 585.793 59.7844 585.66 50.9844L585.393 34.9844L574.46 34.5844L563.393 34.1844V53.6511Z" fill="#51B46B"/>
<path d="M460.327 71.7844C450.06 73.7844 440.46 78.7177 433.66 85.5177L427.393 91.9177V82.4511V72.9844H416.06H404.727V131.651V190.318H415.927H427.26L427.66 154.584C428.06 120.718 428.193 118.718 431.127 112.851C434.993 104.984 443.393 96.5844 451.26 92.7177C456.06 90.4511 459.793 89.7844 468.727 89.7844C481.127 89.7844 485.393 91.2511 491.66 97.9177C499.66 106.184 500.06 108.718 500.46 151.251L500.86 190.318H512.193H523.66L523.127 148.584C522.593 108.584 522.46 106.718 519.527 99.1177C511.127 77.9177 486.86 66.7177 460.327 71.7844Z" fill="#51B46B"/>
<path d="M688.059 71.7844C668.059 75.1178 650.059 87.9178 642.592 104.184C638.592 112.984 636.325 127.651 637.392 137.651C640.725 166.718 657.125 184.984 685.659 190.984C715.125 197.251 745.659 186.051 755.392 165.384C759.792 155.918 759.659 155.651 746.725 155.651C740.325 155.651 735.392 156.184 735.392 156.984C735.392 157.651 733.392 160.451 731.125 163.118C716.459 179.784 680.992 176.984 668.059 158.318C663.792 152.184 660.859 144.451 660.725 139.384V135.651L710.459 135.384L760.059 134.984L760.192 130.184C761.392 90.1844 729.925 64.7178 688.059 71.7844ZM719.659 92.7178C727.525 96.1844 732.725 102.318 734.725 109.918C735.659 113.384 736.192 116.718 735.792 117.251C735.525 117.918 718.725 118.318 698.459 118.318H661.792L662.592 114.184C664.592 103.784 676.592 92.9844 688.725 90.3178C697.525 88.4511 712.859 89.6511 719.659 92.7178Z" fill="#51B46B"/>
<path d="M1124.73 72.0511C1114.86 74.4511 1106.99 78.7177 1099.26 85.9177L1092.73 92.0511V82.4511V72.9844H1081.39H1070.06V131.651V190.318H1081.26H1092.59L1092.99 155.251C1093.39 115.651 1093.93 113.518 1104.59 101.918C1112.46 93.3844 1121.39 89.7844 1134.73 89.7844C1146.99 89.6511 1154.46 92.7177 1159.39 99.6511C1165.39 108.051 1166.06 113.784 1166.06 153.251V190.318H1177.53H1188.86L1188.46 147.918L1188.06 105.651L1184.19 97.2511C1179.39 86.8511 1170.19 78.1844 1159.79 74.3177C1150.46 70.8511 1134.46 69.7844 1124.73 72.0511Z" fill="#51B46B"/>
<path d="M1258.46 71.7844C1228.59 76.7177 1209.79 96.9844 1207.79 126.318C1205.93 153.651 1217.79 175.518 1240.19 185.784C1271.93 200.451 1312.86 190.984 1325.26 165.918C1330.46 155.784 1330.33 155.651 1317.66 155.651H1306.46L1303.26 160.584C1296.73 170.584 1283.93 175.384 1267.53 173.784C1250.06 172.184 1237.66 162.451 1232.73 146.584C1231.26 141.918 1230.06 137.518 1230.06 136.851C1230.06 136.184 1251.53 135.651 1280.06 135.651H1330.06V125.918C1330.06 97.9177 1313.79 78.0511 1286.19 72.1844C1276.46 70.1844 1268.86 70.0511 1258.46 71.7844ZM1288.19 91.6511C1297.93 95.3844 1305.93 105.651 1306.06 114.584V118.318H1269.53C1249.39 118.318 1232.59 117.784 1232.19 117.251C1231.13 115.518 1236.59 104.718 1240.46 100.584C1244.86 95.9177 1252.46 91.9177 1259.79 90.3177C1266.46 88.8511 1282.86 89.6511 1288.19 91.6511Z" fill="#51B46B"/>
<path d="M354.059 131.651V190.318H365.392H376.725V131.651V72.9844H365.392H354.059V131.651Z" fill="#51B46B"/>
<path d="M782.059 131.651V190.318H793.259H804.459L804.992 154.718C805.392 120.451 805.525 118.718 808.459 112.718C814.992 99.5178 825.792 94.3178 846.992 94.3178H859.392V83.5178V72.7178L843.792 73.2511C822.459 74.1844 813.392 78.4511 808.059 90.1844C806.725 93.2511 805.125 95.6511 804.459 95.6511C803.925 95.6511 803.392 90.5844 803.392 84.3178V72.9844H792.725H782.059V131.651Z" fill="#51B46B"/>
<path d="M926.326 116.584L926.726 160.318L930.326 167.918C934.859 177.651 942.992 185.518 952.459 189.118C958.592 191.518 962.726 192.184 974.059 192.184C992.592 192.184 1000.86 189.118 1011.66 178.184L1019.39 170.584V180.451V190.318H1030.73H1042.06V131.651V72.9844H1030.73H1019.39V106.718C1019.39 146.984 1018.73 150.451 1008.73 161.384C1001.26 169.518 994.992 172.584 983.392 173.918C966.592 175.651 953.526 168.318 950.326 155.251C949.259 151.384 948.726 135.518 948.726 111.118V72.9844H937.259H925.926L926.326 116.584Z" fill="#51B46B"/>
<path d="M10.7261 98.8512C-4.07395 107.784 -3.40728 129.384 11.7927 137.118C24.4594 143.651 40.3261 136.051 43.2594 122.184C47.2594 103.651 26.8594 89.1178 10.7261 98.8512Z" fill="#51B46B"/>
<path d="M107.792 97.7845C97.259 102.318 92.459 116.718 97.9257 127.251C102.192 135.651 107.792 138.984 117.526 138.984C124.326 138.984 126.326 138.451 130.592 135.118C147.392 122.318 138.059 95.2512 117.126 95.7845C114.326 95.7845 110.192 96.7178 107.792 97.7845Z" fill="#51B46B"/>
<path d="M204.726 97.1178C196.459 100.451 191.393 108.451 191.393 118.051C191.393 129.651 199.659 138.451 211.659 139.251C221.126 139.918 228.059 136.051 232.459 127.384C236.193 120.184 235.793 112.584 231.393 105.384C226.593 97.5178 213.793 93.5178 204.726 97.1178Z" fill="#51B46B"/>
<path d="M181.526 163.384C175.66 164.051 168.06 169.518 165.66 174.718C162.326 181.518 162.726 191.651 166.46 197.118C170.726 203.651 180.46 208.184 187.926 207.118C204.326 204.584 212.46 185.118 202.593 172.051C197.526 165.384 190.06 162.318 181.526 163.384Z" fill="#51B46B"/>
<path d="M38.3255 166.318C29.2589 171.918 25.5255 183.651 29.7922 193.384C36.1922 207.784 53.6589 211.651 65.1255 201.251C75.2589 192.051 73.3922 173.651 61.5255 166.451C55.5255 162.718 44.3255 162.718 38.3255 166.318Z" fill="#51B46B"/>
<path d="M112.859 191.784C98.7256 194.718 91.1256 211.118 98.1923 223.651C106.859 238.984 128.992 238.851 136.859 223.251C145.126 207.118 130.592 188.051 112.859 191.784Z" fill="#51B46B"/>
</svg>
