<?xml version="1.0" standalone="no"?>
<!DOCTYPE svg PUBLIC "-//W3C//DTD SVG 20010904//EN"
 "http://www.w3.org/TR/2001/REC-SVG-20010904/DTD/svg10.dtd">
<svg version="1.0" xmlns="http://www.w3.org/2000/svg"
 width="722.000000pt" height="494.000000pt" viewBox="0 0 722.000000 494.000000"
 preserveAspectRatio="xMidYMid meet">

<g transform="translate(0.000000,494.000000) scale(0.100000,-0.100000)"
fill="#000000" stroke="none">
<path d="M1753 4503 c-246 -376 -529 -915 -696 -1328 -135 -333 -218 -603
-264 -850 -27 -151 -25 -392 6 -504 69 -257 186 -392 551 -637 317 -212 692
-401 1152 -580 368 -143 1001 -334 1039 -313 15 8 17 14 9 28 -9 18 -99 81
-114 81 -4 0 -33 17 -64 38 -31 21 -79 51 -106 68 -59 34 -112 66 -190 114
-85 52 -783 529 -846 578 -151 118 -181 142 -260 208 -286 241 -450 460 -518
694 -24 81 -23 501 1 710 10 85 20 162 23 170 4 8 12 53 20 100 18 114 43 242
50 260 3 8 12 47 19 85 8 39 21 97 29 130 8 33 24 101 36 150 37 152 48 197
69 275 12 41 28 102 35 135 8 33 29 106 45 163 17 56 31 109 31 117 0 9 4 23
9 33 16 28 51 158 51 186 0 51 -28 24 -117 -111z"/>
<path d="M5454 4618 c4 -13 13 -45 20 -73 8 -27 42 -149 76 -270 113 -404 235
-914 284 -1195 47 -270 58 -393 60 -660 1 -253 0 -268 -23 -340 -62 -198 -196
-386 -427 -600 -266 -247 -933 -710 -1551 -1078 -51 -30 -100 -63 -110 -74
-17 -19 -17 -20 1 -34 22 -15 14 -17 216 38 881 240 1722 626 2200 1012 160
129 246 236 293 364 13 37 30 83 37 102 18 47 26 416 11 490 -6 30 -16 82 -22
115 -5 33 -16 80 -24 105 -7 25 -23 81 -35 125 -12 44 -36 121 -52 170 -30 88
-170 449 -187 483 -5 9 -21 46 -36 82 -49 117 -259 530 -335 660 -4 8 -22 40
-38 70 -53 100 -213 364 -252 415 -20 28 -45 65 -54 83 -20 39 -63 47 -52 10z"/>
<path d="M2055 3998 c-30 -69 -122 -339 -194 -573 -24 -75 -82 -310 -100 -400
-53 -267 -61 -339 -61 -533 0 -167 3 -201 24 -283 47 -183 121 -304 276 -452
217 -206 823 -567 1196 -713 113 -44 148 -52 158 -35 13 20 -11 44 -113 116
-124 89 -219 160 -305 230 -33 28 -79 64 -101 80 -22 16 -45 34 -51 40 -6 5
-30 26 -54 45 -317 253 -601 549 -681 710 -76 152 -93 256 -93 575 0 293 12
424 84 874 6 36 14 81 20 100 17 69 41 231 35 241 -11 18 -25 10 -40 -22z"/>
<path d="M5235 4019 c-8 -12 0 -76 20 -164 14 -63 44 -234 69 -395 54 -338 69
-802 32 -995 -24 -127 -56 -212 -112 -297 -53 -79 -236 -290 -320 -368 -108
-100 -351 -304 -508 -425 -21 -17 -86 -67 -145 -113 -58 -45 -145 -109 -193
-143 -98 -68 -113 -83 -104 -104 9 -24 39 -18 159 29 296 115 863 437 1092
620 136 108 297 300 327 389 6 17 14 37 18 42 16 23 42 123 52 203 12 97 4
438 -12 512 -6 25 -17 81 -25 125 -8 44 -24 121 -35 170 -11 50 -25 110 -30
134 -6 25 -14 59 -20 75 -5 17 -21 72 -36 121 -14 50 -37 124 -51 165 -14 41
-29 89 -33 105 -5 17 -20 62 -35 100 -14 39 -35 99 -47 135 -28 86 -46 108
-63 79z"/>
</g>
</svg>
