<svg width="38" height="38" viewBox="0 0 38 38" fill="none" xmlns="http://www.w3.org/2000/svg">
<circle cx="19" cy="19" r="19" fill="#63CB7E"/>
<g clip-path="url(#clip0_1_693)">
<path d="M20.1006 15.2151V16.8223C20.2125 16.6731 20.3063 16.542 20.4079 16.416C20.8143 15.8984 21.3445 15.4916 21.9497 15.2332C22.5549 14.9748 23.2155 14.873 23.8703 14.9374C24.5701 14.9612 25.2531 15.1582 25.8581 15.5109C26.3347 15.8016 26.7475 16.186 27.0715 16.6408C27.3955 17.0956 27.6239 17.6113 27.7429 18.1569C27.8932 18.7577 27.9679 19.3748 27.9653 19.9941C27.9653 22.2004 27.9653 24.4071 27.9653 26.6143C27.9653 26.6503 27.9653 26.6876 27.9653 26.73H24.1429V26.6143C24.1429 24.5571 24.1429 22.5 24.1429 20.4429C24.151 19.9869 24.0756 19.5333 23.9205 19.1044C23.8082 18.7755 23.5961 18.4897 23.3138 18.2869C23.0316 18.0842 22.6931 17.9744 22.3455 17.973C22.0566 17.9616 21.7685 18.0085 21.4982 18.1109C21.2278 18.2133 20.9809 18.3691 20.7721 18.569C20.5633 18.7689 20.397 19.0088 20.2829 19.2745C20.1689 19.5401 20.1095 19.8259 20.1083 20.115C20.1186 20.9507 20.1083 21.7864 20.1083 22.6196C20.1083 23.9507 20.1083 25.2814 20.1083 26.6117V26.7326H16.2782V15.2151H20.1006Z" fill="white"/>
<path d="M10.0334 15.2126H13.8572V26.73H10.0334V15.2126Z" fill="white"/>
<path d="M11.9427 13.212C13.0313 13.212 13.9137 12.3296 13.9137 11.241C13.9137 10.1525 13.0313 9.27002 11.9427 9.27002C10.8542 9.27002 9.97174 10.1525 9.97174 11.241C9.97174 12.3296 10.8542 13.212 11.9427 13.212Z" fill="white"/>
</g>
<defs>
<clipPath id="clip0_1_693">
<rect width="18" height="18" fill="white" transform="translate(10 9)"/>
</clipPath>
</defs>
</svg>
