<svg width="38" height="38" viewBox="0 0 38 38" fill="none" xmlns="http://www.w3.org/2000/svg">
<circle cx="19" cy="19" r="19" fill="url(#paint0_linear_1_690)"/>
<g filter="url(#filter0_d_1_690)">
<path fill-rule="evenodd" clip-rule="evenodd" d="M28.4471 12.3871C27.6391 12.854 26.7582 13.1815 25.8414 13.3557C25.4522 12.9543 24.9857 12.6359 24.4701 12.4196C23.9546 12.2033 23.4005 12.0936 22.8414 12.0971C21.7694 12.0834 20.7357 12.4958 19.9675 13.2436C19.1993 13.9915 18.7593 15.0137 18.7443 16.0857C18.7456 16.3939 18.7835 16.7008 18.8571 17C17.2346 16.9266 15.6449 16.5179 14.1881 15.7997C12.7314 15.0815 11.4391 14.0694 10.3929 12.8271C10.0299 13.4312 9.83788 14.1224 9.83714 14.8271C9.83841 15.4901 10.0063 16.142 10.3253 16.7231C10.6443 17.3043 11.1042 17.7959 11.6629 18.1528C11.0134 18.1339 10.3774 17.9631 9.80571 17.6543C9.80571 17.67 9.80571 17.6871 9.80571 17.7043C9.81516 18.6362 10.148 19.5359 10.7473 20.2496C11.3466 20.9633 12.1752 21.4467 13.0914 21.6171C12.7387 21.7115 12.3752 21.7596 12.01 21.76C11.7511 21.7605 11.4928 21.7361 11.2386 21.6871C11.5124 22.4887 12.0281 23.1857 12.7145 23.682C13.4009 24.1784 14.2244 24.4497 15.0714 24.4586C13.6075 25.5746 11.8166 26.1771 9.97571 26.1728C9.64951 26.1702 9.32373 26.1487 9 26.1086C10.8855 27.2842 13.0637 27.906 15.2857 27.9028C16.8009 27.9355 18.3073 27.6664 19.7175 27.1113C21.1277 26.5563 22.4134 25.7263 23.4998 24.6696C24.5862 23.613 25.4516 22.3509 26.0456 20.9567C26.6397 19.5625 26.9505 18.064 26.96 16.5486C26.96 16.3757 26.96 16.2043 26.9486 16.0328C27.7501 15.4716 28.4449 14.7715 29 13.9657C28.2496 14.2905 27.4553 14.5028 26.6429 14.5957C27.4942 14.1051 28.1362 13.3193 28.4471 12.3871Z" fill="white"/>
</g>
<defs>
<filter id="filter0_d_1_690" x="1" y="5.0968" width="36" height="31.8087" filterUnits="userSpaceOnUse" color-interpolation-filters="sRGB">
<feFlood flood-opacity="0" result="BackgroundImageFix"/>
<feColorMatrix in="SourceAlpha" type="matrix" values="0 0 0 0 0 0 0 0 0 0 0 0 0 0 0 0 0 0 127 0" result="hardAlpha"/>
<feOffset dy="1"/>
<feGaussianBlur stdDeviation="4"/>
<feComposite in2="hardAlpha" operator="out"/>
<feColorMatrix type="matrix" values="0 0 0 0 0 0 0 0 0 0 0 0 0 0 0 0 0 0 0.07 0"/>
<feBlend mode="normal" in2="BackgroundImageFix" result="effect1_dropShadow_1_690"/>
<feBlend mode="normal" in="SourceGraphic" in2="effect1_dropShadow_1_690" result="shape"/>
</filter>
<linearGradient id="paint0_linear_1_690" x1="16.8889" y1="3.6701e-08" x2="20.0556" y2="38" gradientUnits="userSpaceOnUse">
<stop stop-color="#63CB7E"/>
<stop offset="1" stop-color="#51B46B"/>
</linearGradient>
</defs>
</svg>
